<svg width="114" height="25" viewBox="0 0 114 25" fill="none" xmlns="http://www.w3.org/2000/svg">
<path d="M1.32324 12C1.32324 5.64873 6.47197 0.5 12.8232 0.5H101.454C107.806 0.5 112.954 5.64873 112.954 12C112.954 18.3513 107.806 23.5 101.454 23.5H12.8232C6.47197 23.5 1.32324 18.3513 1.32324 12Z" fill="url(#paint0_linear_620_750)"/>
<path d="M1.32324 12C1.32324 5.64873 6.47197 0.5 12.8232 0.5H101.454C107.806 0.5 112.954 5.64873 112.954 12C112.954 18.3513 107.806 23.5 101.454 23.5H12.8232C6.47197 23.5 1.32324 18.3513 1.32324 12Z" fill="url(#paint1_linear_620_750)"/>
<path d="M1.32324 12C1.32324 5.64873 6.47197 0.5 12.8232 0.5H101.454C107.806 0.5 112.954 5.64873 112.954 12C112.954 18.3513 107.806 23.5 101.454 23.5H12.8232C6.47197 23.5 1.32324 18.3513 1.32324 12Z" stroke="#141C2E"/>
<g filter="url(#filter0_d_620_750)">
<path d="M90.7848 16.9585C94.0668 16.9585 96.7273 14.2854 96.7273 10.9879C96.7273 7.69046 94.0668 5.01733 90.7848 5.01733C87.5028 5.01733 84.8423 7.69046 84.8423 10.9879C84.8423 14.2854 87.5028 16.9585 90.7848 16.9585Z" fill="#FFD21E"/>
<path d="M96.7273 10.9879C96.7273 7.69046 94.0667 5.01734 90.7848 5.01734C87.5028 5.01734 84.8422 7.69046 84.8422 10.9879C84.8422 14.2854 87.5028 16.9585 90.7848 16.9585C94.0667 16.9585 96.7273 14.2854 96.7273 10.9879ZM84.1582 10.9879C84.1582 7.3109 87.125 4.33008 90.7848 4.33008C94.4445 4.33008 97.4113 7.3109 97.4113 10.9879C97.4113 14.665 94.4445 17.6458 90.7848 17.6458C87.125 17.6458 84.1582 14.665 84.1582 10.9879Z" fill="#FF9D00"/>
<path d="M92.7156 9.36277C92.9335 9.44009 93.0203 9.89024 93.2404 9.77263C93.6574 9.54989 93.8156 9.02972 93.5939 8.6108C93.3722 8.19188 92.8545 8.03285 92.4376 8.25559C92.0206 8.47834 91.8623 8.99851 92.084 9.41743C92.1887 9.61515 92.5208 9.29366 92.7156 9.36277Z" fill="#32343D"/>
<path d="M88.6867 9.36277C88.4688 9.44009 88.3821 9.89024 88.1619 9.77263C87.745 9.54989 87.5867 9.02972 87.8084 8.6108C88.0301 8.19188 88.5478 8.03285 88.9648 8.25559C89.3817 8.47834 89.54 8.99851 89.3183 9.41743C89.2137 9.61515 88.8816 9.29366 88.6867 9.36277Z" fill="#32343D"/>
<path d="M90.7421 13.4859C92.4229 13.4859 92.9652 11.9803 92.9652 11.2072C92.9652 10.8053 92.6964 10.9318 92.2658 11.146C91.8679 11.3439 91.3318 11.6168 90.7421 11.6168C89.5144 11.6168 88.519 10.434 88.519 11.2072C88.519 11.9803 89.0614 13.4859 90.7421 13.4859Z" fill="#32343D"/>
<mask id="mask0_620_750" style="mask-type:alpha" maskUnits="userSpaceOnUse" x="88" y="10" width="5" height="4">
<path d="M90.7421 13.4859C92.4229 13.4859 92.9652 11.9803 92.9652 11.2072C92.9652 10.8053 92.6964 10.9318 92.2658 11.146C91.8679 11.3439 91.3318 11.6168 90.7421 11.6168C89.5144 11.6168 88.519 10.434 88.519 11.2072C88.519 11.9803 89.0614 13.4859 90.7421 13.4859Z" fill="white"/>
</mask>
<g mask="url(#mask0_620_750)">
<path d="M90.7844 15.2403C91.6035 15.2403 92.2675 14.5731 92.2675 13.7501C92.2675 13.1091 91.8647 12.5627 91.2995 12.3523C91.2787 12.3446 91.2577 12.3373 91.2364 12.3305C91.0939 12.2847 90.942 12.7769 90.7844 12.7769C90.6371 12.7769 90.4948 12.2816 90.3605 12.3217C89.748 12.505 89.3013 13.0751 89.3013 13.7501C89.3013 14.5731 89.9653 15.2403 90.7844 15.2403Z" fill="#FF323D"/>
</g>
<g style="mix-blend-mode:multiply">
<path d="M94.8033 10.1718C95.1103 10.1718 95.3591 9.92179 95.3591 9.61339C95.3591 9.305 95.1103 9.05499 94.8033 9.05499C94.4964 9.05499 94.2476 9.305 94.2476 9.61339C94.2476 9.92179 94.4964 10.1718 94.8033 10.1718Z" fill="#FFD21E"/>
</g>
<g style="mix-blend-mode:multiply">
<path d="M86.8512 10.1718C87.1581 10.1718 87.407 9.92179 87.407 9.61339C87.407 9.305 87.1581 9.05499 86.8512 9.05499C86.5442 9.05499 86.2954 9.305 86.2954 9.61339C86.2954 9.92179 86.5442 10.1718 86.8512 10.1718Z" fill="#FFD21E"/>
</g>
<path d="M85.7074 12.0618C85.4306 12.0618 85.1831 12.176 85.0106 12.3832C84.9039 12.5116 84.7924 12.7184 84.7833 13.0282C84.6672 12.9947 84.5555 12.976 84.4512 12.976C84.1862 12.976 83.9467 13.0781 83.7774 13.2634C83.5599 13.5014 83.4633 13.7938 83.5054 14.0864C83.5254 14.2258 83.5717 14.3507 83.641 14.4663C83.4949 14.585 83.3874 14.7503 83.3354 14.9491C83.2947 15.105 83.253 15.4295 83.4708 15.7639C83.457 15.7857 83.444 15.8084 83.4318 15.8316C83.3008 16.0814 83.2925 16.3637 83.4081 16.6266C83.5833 17.025 84.0189 17.3389 84.8647 17.6758C85.3909 17.8855 85.8723 18.0195 85.8766 18.0207C86.5722 18.2019 87.2014 18.294 87.746 18.294C88.7471 18.294 89.4638 17.986 89.8763 17.3784C90.5401 16.4001 90.4452 15.5053 89.5862 14.6428C89.1108 14.1655 88.7948 13.4617 88.729 13.3073C88.5963 12.8499 88.2454 12.3415 87.6621 12.3415H87.6619C87.6128 12.3415 87.5632 12.3454 87.5143 12.3532C87.2588 12.3935 87.0355 12.5413 86.8759 12.7636C86.7037 12.5485 86.5365 12.3774 86.3851 12.2808C86.157 12.1355 85.9291 12.0618 85.7074 12.0618ZM85.7074 12.749C85.7947 12.749 85.9012 12.7863 86.0187 12.8612C86.3834 13.0937 87.0873 14.3093 87.345 14.7821C87.4314 14.9405 87.5789 15.0075 87.7118 15.0075C87.9755 15.0075 88.1814 14.7442 87.7359 14.4095C87.0661 13.9059 87.3011 13.0827 87.6208 13.032C87.6349 13.0298 87.6487 13.0287 87.6621 13.0287C87.9528 13.0287 88.081 13.5322 88.081 13.5322C88.081 13.5322 88.4569 14.4806 89.1026 15.1288C89.7484 15.7773 89.7817 16.2977 89.3111 16.9912C88.9901 17.464 88.3757 17.6068 87.746 17.6068C87.0929 17.6068 86.4234 17.4532 86.0483 17.3554C86.0298 17.3506 83.748 16.703 84.037 16.1518C84.0856 16.0592 84.1656 16.0221 84.2664 16.0221C84.6734 16.0221 85.4136 16.6307 85.7319 16.6307C85.803 16.6307 85.8531 16.6003 85.8737 16.526C86.0093 16.0372 83.8118 15.8317 83.997 15.1237C84.0297 14.9984 84.1183 14.9476 84.2428 14.9478C84.7806 14.9478 85.9872 15.8981 86.2401 15.8981C86.2594 15.8981 86.2733 15.8924 86.2808 15.8804C86.4075 15.6749 86.3381 15.5314 85.4449 14.9883C84.5518 14.445 83.9249 14.1182 84.2814 13.7282C84.3224 13.6832 84.3806 13.6633 84.4512 13.6633C84.9935 13.6634 86.2747 14.8349 86.2747 14.8349C86.2747 14.8349 86.6204 15.1962 86.8296 15.1962C86.8776 15.1962 86.9185 15.1771 86.9462 15.13C87.0945 14.8789 85.5691 13.7174 85.4831 13.2382C85.4248 12.9135 85.5239 12.749 85.7074 12.749Z" fill="#FF9D00"/>
<path d="M89.311 16.9912C89.7816 16.2977 89.7482 15.7773 89.1025 15.1288C88.4568 14.4806 88.0809 13.5322 88.0809 13.5322C88.0809 13.5322 87.9405 12.9813 87.6207 13.032C87.301 13.0827 87.0662 13.9059 87.736 14.4095C88.4058 14.9129 87.6026 15.255 87.3449 14.7821C87.0872 14.3093 86.3835 13.0937 86.0186 12.8612C85.6538 12.6288 85.397 12.759 85.483 13.2382C85.569 13.7174 87.0945 14.8789 86.9461 15.1302C86.7977 15.3814 86.2746 14.8349 86.2746 14.8349C86.2746 14.8349 84.6377 13.3382 84.2813 13.7282C83.9249 14.1182 84.5517 14.445 85.4448 14.9883C86.3382 15.5314 86.4074 15.6749 86.2807 15.8804C86.1538 16.0859 84.1821 14.4156 83.9969 15.1237C83.8119 15.8317 86.0092 16.0372 85.8736 16.5261C85.7379 17.015 84.3258 15.6008 84.0369 16.1518C83.7479 16.703 86.0297 17.3506 86.0482 17.3554C86.7852 17.5475 88.657 17.9545 89.311 16.9912Z" fill="#FFD21E"/>
<path d="M95.9473 12.0618C96.2242 12.0618 96.4717 12.176 96.6442 12.3832C96.7509 12.5116 96.8624 12.7184 96.8715 13.0282C96.9876 12.9947 97.0993 12.976 97.2036 12.976C97.4686 12.976 97.708 13.0781 97.8773 13.2634C98.0949 13.5014 98.1915 13.7938 98.1494 14.0864C98.1294 14.2258 98.0831 14.3507 98.0138 14.4663C98.1598 14.585 98.2674 14.7503 98.3194 14.9491C98.3601 15.105 98.4018 15.4295 98.184 15.7639C98.1978 15.7857 98.2108 15.8084 98.2229 15.8316C98.3539 16.0814 98.3623 16.3637 98.2467 16.6266C98.0714 17.025 97.6359 17.3389 96.7901 17.6758C96.2639 17.8855 95.7825 18.0195 95.7782 18.0207C95.0826 18.2019 94.4534 18.294 93.9088 18.294C92.9077 18.294 92.191 17.986 91.7785 17.3784C91.1147 16.4001 91.2096 15.5053 92.0686 14.6428C92.544 14.1655 92.86 13.4617 92.9258 13.3073C93.0585 12.8499 93.4094 12.3415 93.9927 12.3415H93.9929C94.042 12.3415 94.0916 12.3454 94.1405 12.3532C94.396 12.3935 94.6193 12.5413 94.7789 12.7636C94.9511 12.5485 95.1183 12.3774 95.2696 12.2808C95.4978 12.1355 95.7257 12.0618 95.9473 12.0618ZM95.9473 12.749C95.8601 12.749 95.7536 12.7863 95.6361 12.8612C95.2714 13.0937 94.5675 14.3093 94.3098 14.7821C94.2234 14.9405 94.0758 15.0075 93.943 15.0075C93.6793 15.0075 93.4734 14.7442 93.9189 14.4095C94.5887 13.9059 94.3537 13.0827 94.0339 13.032C94.0199 13.0298 94.0061 13.0287 93.9927 13.0287C93.702 13.0287 93.5738 13.5322 93.5738 13.5322C93.5738 13.5322 93.1979 14.4806 92.5522 15.1288C91.9064 15.7773 91.8731 16.2977 92.3437 16.9912C92.6647 17.464 93.2791 17.6068 93.9088 17.6068C94.5618 17.6068 95.2313 17.4532 95.6065 17.3554C95.625 17.3506 97.9068 16.703 97.6178 16.1518C97.5692 16.0592 97.4892 16.0221 97.3884 16.0221C96.9814 16.0221 96.2411 16.6307 95.9229 16.6307C95.8518 16.6307 95.8017 16.6003 95.7811 16.526C95.6455 16.0372 97.843 15.8317 97.6578 15.1237C97.6251 14.9984 97.5365 14.9476 97.412 14.9478C96.8742 14.9478 95.6676 15.8981 95.4147 15.8981C95.3953 15.8981 95.3815 15.8924 95.374 15.8804C95.2472 15.6749 95.3167 15.5314 96.2098 14.9883C97.103 14.445 97.7299 14.1182 97.3734 13.7282C97.3323 13.6832 97.2742 13.6633 97.2036 13.6633C96.6613 13.6634 95.3801 14.8349 95.3801 14.8349C95.3801 14.8349 95.0343 15.1962 94.8252 15.1962C94.7771 15.1962 94.7363 15.1771 94.7086 15.13C94.5603 14.8789 96.0857 13.7174 96.1717 13.2382C96.23 12.9135 96.1308 12.749 95.9473 12.749Z" fill="#FF9D00"/>
<path d="M92.3433 16.9912C91.8727 16.2977 91.9061 15.7773 92.5518 15.1288C93.1975 14.4806 93.5734 13.5322 93.5734 13.5322C93.5734 13.5322 93.7138 12.9813 94.0336 13.032C94.3533 13.0827 94.5881 13.9059 93.9183 14.4095C93.2485 14.9129 94.0517 15.255 94.3094 14.7821C94.5671 14.3093 95.2708 13.0937 95.6357 12.8612C96.0005 12.6288 96.2573 12.759 96.1713 13.2382C96.0853 13.7174 94.5597 14.8789 94.7082 15.1302C94.8566 15.3814 95.3797 14.8349 95.3797 14.8349C95.3797 14.8349 97.0166 13.3382 97.373 13.7282C97.7294 14.1182 97.1026 14.445 96.2095 14.9883C95.3161 15.5314 95.2469 15.6749 95.3736 15.8804C95.5005 16.0859 97.4722 14.4156 97.6574 15.1237C97.8424 15.8317 95.6451 16.0372 95.7807 16.5261C95.9164 17.015 97.3285 15.6008 97.6174 16.1518C97.9064 16.703 95.6246 17.3506 95.6061 17.3554C94.8691 17.5475 92.9973 17.9545 92.3433 16.9912Z" fill="#FFD21E"/>
</g>
<path d="M18.2538 16.5674V6.26846H20.3168L22.1435 11.3077C22.259 11.6332 22.3692 11.9691 22.4742 12.3156C22.5897 12.6515 22.6999 12.9875 22.8049 13.3234H22.8679C22.9834 12.9875 23.0936 12.6515 23.1986 12.3156C23.3036 11.9691 23.4086 11.6332 23.5135 11.3077L25.293 6.26846H27.3717V16.5674H25.6867V11.8589C25.6867 11.5334 25.6972 11.1817 25.7182 10.8038C25.7497 10.4153 25.7812 10.0269 25.8127 9.63845C25.8547 9.25001 25.8914 8.89831 25.9229 8.58336H25.8599L25.0253 10.977L23.3403 15.6068H22.2537L20.553 10.977L19.7341 8.58336H19.6711C19.7026 8.89831 19.7341 9.25001 19.7656 9.63845C19.8076 10.0269 19.8391 10.4153 19.8601 10.8038C19.8916 11.1817 19.9073 11.5334 19.9073 11.8589V16.5674H18.2538ZM32.9955 16.7564C32.3551 16.7564 31.7566 16.5989 31.2002 16.284C30.6438 15.9585 30.1924 15.4966 29.8459 14.8982C29.4995 14.2893 29.3263 13.5596 29.3263 12.7092C29.3263 11.8484 29.4995 11.1187 29.8459 10.5203C30.1924 9.91141 30.6438 9.44948 31.2002 9.13453C31.7566 8.80908 32.3551 8.64635 32.9955 8.64635C33.6464 8.64635 34.25 8.80908 34.8064 9.13453C35.3629 9.44948 35.8143 9.91141 36.1607 10.5203C36.5072 11.1187 36.6804 11.8484 36.6804 12.7092C36.6804 13.5596 36.5072 14.2893 36.1607 14.8982C35.8143 15.4966 35.3629 15.9585 34.8064 16.284C34.25 16.5989 33.6464 16.7564 32.9955 16.7564ZM32.9955 15.2761C33.5624 15.2761 34.0086 15.0399 34.334 14.5675C34.6595 14.095 34.8222 13.4756 34.8222 12.7092C34.8222 11.9324 34.6595 11.3077 34.334 10.8353C34.0086 10.3628 33.5624 10.1266 32.9955 10.1266C32.4285 10.1266 31.9824 10.3628 31.6569 10.8353C31.342 11.3077 31.1845 11.9324 31.1845 12.7092C31.1845 13.4756 31.342 14.095 31.6569 14.5675C31.9824 15.0399 32.4285 15.2761 32.9955 15.2761ZM41.1815 16.7564C40.2157 16.7564 39.444 16.3994 38.8666 15.6855C38.2892 14.9717 38.0005 13.9796 38.0005 12.7092C38.0005 11.8694 38.1527 11.145 38.4572 10.5361C38.7721 9.92716 39.1816 9.45998 39.6855 9.13453C40.1894 8.80908 40.7196 8.64635 41.276 8.64635C41.7169 8.64635 42.0896 8.72509 42.3941 8.88257C42.709 9.02954 43.0135 9.23426 43.3075 9.49672L43.2445 8.25266V5.44958H45.0554V16.5674H43.5594L43.4334 15.7328H43.3704C43.087 16.0162 42.7563 16.2577 42.3783 16.4572C42.0004 16.6566 41.6015 16.7564 41.1815 16.7564ZM41.6225 15.2604C42.1999 15.2604 42.7405 14.9717 43.2445 14.3942V10.788C42.982 10.5466 42.7195 10.3786 42.4571 10.2841C42.1946 10.1896 41.9322 10.1424 41.6697 10.1424C41.1763 10.1424 40.7511 10.3681 40.3941 10.8195C40.0477 11.2605 39.8745 11.8851 39.8745 12.6935C39.8745 13.5229 40.0267 14.158 40.3312 14.599C40.6356 15.0399 41.066 15.2604 41.6225 15.2604ZM50.6687 16.7564C49.9548 16.7564 49.3092 16.5989 48.7318 16.284C48.1544 15.9585 47.6977 15.4966 47.3617 14.8982C47.0258 14.2893 46.8578 13.5596 46.8578 12.7092C46.8578 11.8694 47.0258 11.145 47.3617 10.5361C47.7082 9.92716 48.1544 9.45998 48.7003 9.13453C49.2462 8.80908 49.8184 8.64635 50.4168 8.64635C51.1202 8.64635 51.7081 8.80383 52.1805 9.11878C52.6529 9.42324 53.0099 9.85367 53.2514 10.4101C53.4928 10.956 53.6135 11.5912 53.6135 12.3156C53.6135 12.6935 53.5873 12.9875 53.5348 13.1974H48.6215C48.7055 13.8798 48.9522 14.41 49.3617 14.7879C49.7711 15.1659 50.2855 15.3548 50.905 15.3548C51.2409 15.3548 51.5506 15.3076 51.8341 15.2131C52.128 15.1081 52.4167 14.9664 52.7002 14.7879L53.3143 15.9218C52.9469 16.1632 52.5375 16.3627 52.086 16.5202C51.6346 16.6776 51.1622 16.7564 50.6687 16.7564ZM48.6058 11.9691H52.0388C52.0388 11.3707 51.9076 10.9035 51.6451 10.5676C51.3826 10.2211 50.9889 10.0479 50.464 10.0479C50.0126 10.0479 49.6084 10.2159 49.2515 10.5518C48.905 10.8773 48.6898 11.3497 48.6058 11.9691ZM57.1069 16.7564C56.4665 16.7564 56.0099 16.5622 55.7369 16.1737C55.4744 15.7853 55.3432 15.2551 55.3432 14.5832V5.44958H57.1542V14.6777C57.1542 14.8982 57.1962 15.0556 57.2802 15.1501C57.3642 15.2341 57.4534 15.2761 57.5479 15.2761C57.5899 15.2761 57.6266 15.2761 57.6581 15.2761C57.7001 15.2656 57.7578 15.2551 57.8313 15.2446L58.0675 16.5989C57.9626 16.6409 57.8261 16.6776 57.6581 16.7091C57.5006 16.7406 57.3169 16.7564 57.1069 16.7564ZM65.8891 16.7564C64.0151 16.7564 62.3459 15.2919 62.3459 12.7565C62.3459 10.1896 64.0151 8.72509 65.8891 8.72509C67.763 8.72509 69.4323 10.1896 69.4323 12.7565C69.4323 15.2919 67.763 16.7564 65.8891 16.7564ZM65.8891 15.6855C67.2119 15.6855 68.0937 14.5045 68.0937 12.7565C68.0937 10.9928 67.2119 9.79593 65.8891 9.79593C64.582 9.79593 63.6844 10.9928 63.6844 12.7565C63.6844 14.5045 64.582 15.6855 65.8891 15.6855ZM71.4479 16.5674V8.91406H72.5187L72.6289 10.0164H72.6762C73.4006 9.29201 74.188 8.72509 75.243 8.72509C76.8493 8.72509 77.5737 9.76443 77.5737 11.7171V16.5674H76.2824V11.8904C76.2824 10.4573 75.8415 9.84317 74.8336 9.84317C74.0462 9.84317 73.5108 10.2526 72.7392 11.0242V16.5674H71.4479Z" fill="#E6EAF2"/>
<defs>
<filter id="filter0_d_620_750" x="77.8787" y="0.157761" width="25.8973" height="24.812" filterUnits="userSpaceOnUse" color-interpolation-filters="sRGB">
<feFlood flood-opacity="0" result="BackgroundImageFix"/>
<feColorMatrix in="SourceAlpha" type="matrix" values="0 0 0 0 0 0 0 0 0 0 0 0 0 0 0 0 0 0 127 0" result="hardAlpha"/>
<feOffset dy="1.2517"/>
<feGaussianBlur stdDeviation="2.71201"/>
<feColorMatrix type="matrix" values="0 0 0 0 0 0 0 0 0 0 0 0 0 0 0 0 0 0 0.1 0"/>
<feBlend mode="normal" in2="BackgroundImageFix" result="effect1_dropShadow_620_750"/>
<feBlend mode="normal" in="SourceGraphic" in2="effect1_dropShadow_620_750" result="shape"/>
</filter>
<linearGradient id="paint0_linear_620_750" x1="0.823242" y1="12" x2="63.7978" y2="12" gradientUnits="userSpaceOnUse">
<stop stop-color="#F5F9FA"/>
<stop offset="1" stop-color="white"/>
</linearGradient>
<linearGradient id="paint1_linear_620_750" x1="0.823242" y1="12" x2="46.9057" y2="12" gradientUnits="userSpaceOnUse">
<stop stop-color="#172033"/>
<stop offset="1" stop-color="#0B0F19"/>
</linearGradient>
</defs>
</svg>
